<svg width="94" height="110" viewBox="0 0 94 110" fill="none" xmlns="http://www.w3.org/2000/svg">
<path d="M82.8504 33.8119L87.1632 29.4991C88.8391 27.8231 88.8391 25.1057 87.1632 23.4306C85.4872 21.7546 82.7706 21.7546 81.0947 23.4306L76.7819 27.7434C69.546 21.7143 60.7534 18.0721 51.3741 17.2194V8.58284H55.5224C57.8924 8.58284 59.8134 6.661 59.8134 4.291C59.8134 1.92101 57.8924 0 55.5224 0H38.6429C36.2729 0 34.3519 1.92101 34.3519 4.291C34.3519 6.661 36.2729 8.58284 38.6429 8.58284H42.7912V17.2194C19.3128 19.3544 0.59375 39.0781 0.59375 63.5107C0.59375 89.2046 21.3858 110 47.0831 110C72.7762 110 93.5716 89.208 93.5716 63.5107C93.5716 52.5352 89.7917 42.1413 82.8504 33.8119ZM47.0822 101.417C26.1811 101.417 9.17575 84.4126 9.17575 63.5107C9.17575 42.6096 26.1811 25.605 47.0822 25.605C67.9842 25.605 84.9887 42.6096 84.9887 63.5107C84.9887 84.4126 67.9842 101.417 47.0822 101.417ZM66.9696 43.6242C68.6455 45.3001 68.6455 48.0176 66.9696 49.6927L50.1169 66.5453C48.441 68.2213 45.7235 68.2213 44.0484 66.5453C42.3725 64.8694 42.3725 62.1519 44.0484 60.4768L60.9002 43.6242C62.5762 41.9482 65.2936 41.9482 66.9696 43.6242Z" fill="black"/>
</svg>
